<mxfile host="app.diagrams.net" modified="2021-09-16T09:10:29.385Z" agent="5.0 (Windows NT 10.0; Win64; x64) AppleWebKit/537.36 (KHTML, like Gecko) Chrome/93.0.4577.63 Safari/537.36" etag="U8KHvPn0wDrFbnj4ic7W" version="15.0.6" type="github">
  <diagram id="cyL6xjQ_YjkvXbmjQjvR" name="Page-1">
    <mxGraphModel dx="923" dy="405" grid="1" gridSize="10" guides="1" tooltips="1" connect="1" arrows="1" fold="1" page="1" pageScale="1" pageWidth="850" pageHeight="1100" math="0" shadow="0">
      <root>
        <mxCell id="0" />
        <mxCell id="1" parent="0" />
        <mxCell id="LQ9tagb472-10bPe4dN_-1" value="startAt" style="text;html=1;strokeColor=none;fillColor=none;align=center;verticalAlign=middle;whiteSpace=wrap;rounded=0;" vertex="1" parent="1">
          <mxGeometry x="141" y="100" width="40" height="20" as="geometry" />
        </mxCell>
        <mxCell id="LQ9tagb472-10bPe4dN_-2" value="endAt" style="text;html=1;strokeColor=none;fillColor=none;align=center;verticalAlign=middle;whiteSpace=wrap;rounded=0;" vertex="1" parent="1">
          <mxGeometry x="630" y="100" width="40" height="20" as="geometry" />
        </mxCell>
        <mxCell id="LQ9tagb472-10bPe4dN_-3" value="" style="endArrow=none;html=1;" edge="1" parent="1">
          <mxGeometry width="50" height="50" relative="1" as="geometry">
            <mxPoint x="160.58" y="300" as="sourcePoint" />
            <mxPoint x="161" y="120" as="targetPoint" />
          </mxGeometry>
        </mxCell>
        <mxCell id="LQ9tagb472-10bPe4dN_-4" value="" style="endArrow=none;html=1;entryX=0.5;entryY=1;entryDx=0;entryDy=0;" edge="1" parent="1" target="LQ9tagb472-10bPe4dN_-2">
          <mxGeometry width="50" height="50" relative="1" as="geometry">
            <mxPoint x="649.5799999999999" y="300" as="sourcePoint" />
            <mxPoint x="649.5799999999999" y="140" as="targetPoint" />
          </mxGeometry>
        </mxCell>
        <mxCell id="LQ9tagb472-10bPe4dN_-5" value="Organization funding" style="text;html=1;strokeColor=none;fillColor=none;align=center;verticalAlign=middle;whiteSpace=wrap;rounded=0;" vertex="1" parent="1">
          <mxGeometry x="21" y="170" width="120" height="20" as="geometry" />
        </mxCell>
        <mxCell id="LQ9tagb472-10bPe4dN_-6" value="Individual funding" style="text;html=1;strokeColor=none;fillColor=none;align=center;verticalAlign=middle;whiteSpace=wrap;rounded=0;" vertex="1" parent="1">
          <mxGeometry x="32" y="248" width="109" height="20" as="geometry" />
        </mxCell>
        <mxCell id="LQ9tagb472-10bPe4dN_-7" value="" style="endArrow=classic;startArrow=classic;html=1;" edge="1" parent="1">
          <mxGeometry width="50" height="50" relative="1" as="geometry">
            <mxPoint x="210" y="190" as="sourcePoint" />
            <mxPoint x="350" y="190" as="targetPoint" />
          </mxGeometry>
        </mxCell>
        <mxCell id="LQ9tagb472-10bPe4dN_-8" value="" style="endArrow=classic;startArrow=classic;html=1;" edge="1" parent="1">
          <mxGeometry width="50" height="50" relative="1" as="geometry">
            <mxPoint x="180" y="268" as="sourcePoint" />
            <mxPoint x="430" y="268" as="targetPoint" />
          </mxGeometry>
        </mxCell>
        <mxCell id="LQ9tagb472-10bPe4dN_-9" value="" style="endArrow=classic;startArrow=classic;html=1;" edge="1" parent="1">
          <mxGeometry width="50" height="50" relative="1" as="geometry">
            <mxPoint x="400" y="189.57999999999993" as="sourcePoint" />
            <mxPoint x="590" y="190" as="targetPoint" />
          </mxGeometry>
        </mxCell>
        <mxCell id="LQ9tagb472-10bPe4dN_-10" value="" style="endArrow=classic;startArrow=classic;html=1;" edge="1" parent="1">
          <mxGeometry width="50" height="50" relative="1" as="geometry">
            <mxPoint x="500" y="268" as="sourcePoint" />
            <mxPoint x="620" y="268" as="targetPoint" />
          </mxGeometry>
        </mxCell>
        <mxCell id="LQ9tagb472-10bPe4dN_-11" value="fund_start" style="text;html=1;strokeColor=none;fillColor=none;align=center;verticalAlign=middle;whiteSpace=wrap;rounded=0;" vertex="1" parent="1">
          <mxGeometry x="210" y="160" width="50" height="20" as="geometry" />
        </mxCell>
        <mxCell id="LQ9tagb472-10bPe4dN_-12" value="fund_end" style="text;html=1;strokeColor=none;fillColor=none;align=center;verticalAlign=middle;whiteSpace=wrap;rounded=0;" vertex="1" parent="1">
          <mxGeometry x="300" y="160" width="50" height="20" as="geometry" />
        </mxCell>
        <mxCell id="LQ9tagb472-10bPe4dN_-13" value="exe_start" style="text;html=1;strokeColor=none;fillColor=none;align=center;verticalAlign=middle;whiteSpace=wrap;rounded=0;" vertex="1" parent="1">
          <mxGeometry x="400" y="160" width="50" height="20" as="geometry" />
        </mxCell>
        <mxCell id="LQ9tagb472-10bPe4dN_-14" value="exe_end" style="text;html=1;strokeColor=none;fillColor=none;align=center;verticalAlign=middle;whiteSpace=wrap;rounded=0;" vertex="1" parent="1">
          <mxGeometry x="540" y="160" width="50" height="20" as="geometry" />
        </mxCell>
        <mxCell id="LQ9tagb472-10bPe4dN_-15" value="fund_start" style="text;html=1;strokeColor=none;fillColor=none;align=center;verticalAlign=middle;whiteSpace=wrap;rounded=0;" vertex="1" parent="1">
          <mxGeometry x="170" y="238" width="50" height="20" as="geometry" />
        </mxCell>
        <mxCell id="LQ9tagb472-10bPe4dN_-16" value="fund_end" style="text;html=1;strokeColor=none;fillColor=none;align=center;verticalAlign=middle;whiteSpace=wrap;rounded=0;" vertex="1" parent="1">
          <mxGeometry x="375" y="238" width="50" height="20" as="geometry" />
        </mxCell>
        <mxCell id="LQ9tagb472-10bPe4dN_-17" value="exe_start" style="text;html=1;strokeColor=none;fillColor=none;align=center;verticalAlign=middle;whiteSpace=wrap;rounded=0;" vertex="1" parent="1">
          <mxGeometry x="500" y="238" width="50" height="20" as="geometry" />
        </mxCell>
        <mxCell id="LQ9tagb472-10bPe4dN_-18" value="exe_end" style="text;html=1;strokeColor=none;fillColor=none;align=center;verticalAlign=middle;whiteSpace=wrap;rounded=0;" vertex="1" parent="1">
          <mxGeometry x="570" y="238" width="50" height="20" as="geometry" />
        </mxCell>
        <mxCell id="LQ9tagb472-10bPe4dN_-20" value="" style="endArrow=classic;html=1;" edge="1" parent="1">
          <mxGeometry relative="1" as="geometry">
            <mxPoint x="20" y="119" as="sourcePoint" />
            <mxPoint x="760" y="119.17" as="targetPoint" />
          </mxGeometry>
        </mxCell>
        <mxCell id="LQ9tagb472-10bPe4dN_-21" value="time" style="edgeLabel;resizable=0;html=1;align=center;verticalAlign=middle;" connectable="0" vertex="1" parent="LQ9tagb472-10bPe4dN_-20">
          <mxGeometry relative="1" as="geometry" />
        </mxCell>
      </root>
    </mxGraphModel>
  </diagram>
</mxfile>
